<svg viewBox="0 0 20 20" xmlns="http://www.w3.org/2000/svg" xmlns:xlink="http://www.w3.org/1999/xlink" width="20.000000" height="20.000000" fill="none" customFrame="#000000">
	<path id="Shape" d="M1 0C0.447715 0 0 0.447715 0 1L0 8C0 8.55228 0.447715 9 1 9L8 9C8.55228 9 9 8.55228 9 8L9 1C9 0.447715 8.55228 0 8 0L1 0ZM11 1C11 0.447715 11.4477 0 12 0L19 0C19.5523 0 20 0.447715 20 1L20 8C20 8.55228 19.5523 9 19 9L12 9C11.4477 9 11 8.55228 11 8L11 1ZM2 7L2 2L7 2L7 7L2 7ZM13 2L13 7L18 7L18 2L13 2ZM0 12C0 11.4477 0.447715 11 1 11L8 11C8.55228 11 9 11.4477 9 12L9 19C9 19.5523 8.55228 20 8 20L1 20C0.447715 20 0 19.5523 0 19L0 12ZM11 12C11 11.4477 11.4477 11 12 11L19 11C19.5523 11 20 11.4477 20 12L20 19C20 19.5523 19.5523 20 19 20L12 20C11.4477 20 11 19.5523 11 19L11 12ZM2 13L2 18L7 18L7 13L2 13ZM13 13L13 18L18 18L18 13L13 13Z" fill="rgb(255,255,255)" fill-rule="evenodd" />
</svg>
