<svg viewBox="0 0 22 14" xmlns="http://www.w3.org/2000/svg" xmlns:xlink="http://www.w3.org/1999/xlink" width="22.000000" height="14.000000" fill="none" customFrame="#000000">
	<path id="Shape" d="M7.70711 1.70711C8.09763 1.31658 8.09763 0.683417 7.70711 0.292893C7.31658 -0.0976311 6.68342 -0.0976311 6.29289 0.292893L0.292893 6.29289C-0.0976311 6.68342 -0.0976311 7.31658 0.292893 7.70711L6.29289 13.7071C6.68342 14.0976 7.31658 14.0976 7.70711 13.7071C8.09763 13.3166 8.09763 12.6834 7.70711 12.2929L2.41421 7L7.70711 1.70711ZM14.2929 0.292893C14.6834 -0.0976311 15.3166 -0.0976311 15.7071 0.292893L21.7071 6.29289C22.0976 6.68342 22.0976 7.31658 21.7071 7.70711L15.7071 13.7071C15.3166 14.0976 14.6834 14.0976 14.2929 13.7071C13.9024 13.3166 13.9024 12.6834 14.2929 12.2929L19.5858 7L14.2929 1.70711C13.9024 1.31658 13.9024 0.683417 14.2929 0.292893Z" fill="rgb(255,255,255)" fill-rule="evenodd" />
</svg>
