<svg viewBox="0 0 22 20" xmlns="http://www.w3.org/2000/svg" xmlns:xlink="http://www.w3.org/1999/xlink" width="22.000000" height="20.000000" fill="none" customFrame="#000000">
	<path id="Shape" d="M12 16L19 16C20.6569 16 22 14.6569 22 13L22 3C22 1.34315 20.6569 0 19 0L3 0C1.34315 0 0 1.34315 0 3L0 13C0 14.6569 1.34315 16 3 16L10 16L10 18L7 18C6.44772 18 6 18.4477 6 19C6 19.5523 6.44772 20 7 20L15 20C15.5523 20 16 19.5523 16 19C16 18.4477 15.5523 18 15 18L12 18L12 16ZM3 2C2.44772 2 2 2.44772 2 3L2 13C2 13.5523 2.44772 14 3 14L19 14C19.5523 14 20 13.5523 20 13L20 3C20 2.44772 19.5523 2 19 2L3 2Z" fill="rgb(255,255,255)" fill-rule="evenodd" />
</svg>
