<svg viewBox="0 0 22.1213 22.1213" xmlns="http://www.w3.org/2000/svg" xmlns:xlink="http://www.w3.org/1999/xlink" width="22.121323" height="22.121338" fill="none" customFrame="#000000">
	<path id="Shape" d="M19 0C18.1722 0 17.3783 0.328852 16.7929 0.914214L7.29289 10.4142C7.16473 10.5424 7.07382 10.703 7.02986 10.8788L6.02986 14.8788C5.94466 15.2196 6.04451 15.58 6.29289 15.8284C6.54127 16.0768 6.90176 16.1767 7.24254 16.0915L11.2425 15.0915C11.4184 15.0475 11.5789 14.9566 11.7071 14.8284L21.2071 5.32843C21.7925 4.74307 22.1213 3.94915 22.1213 3.12132C22.1213 2.29349 21.7925 1.49957 21.2071 0.914214C20.6217 0.328852 19.8278 0 19 0ZM18.2071 2.32843C18.4174 2.11814 18.7026 2 19 2C19.2974 2 19.5826 2.11814 19.7929 2.32843C20.0032 2.53872 20.1213 2.82393 20.1213 3.12132C20.1213 3.41871 20.0032 3.70392 19.7929 3.91421L10.4888 13.2184L8.37437 13.747L8.90296 11.6326L18.2071 2.32843ZM0.87868 3.00002C1.44129 2.43741 2.20435 2.12134 3 2.12134L10 2.12134C10.5523 2.12134 11 2.56905 11 3.12134C11 3.67362 10.5523 4.12134 10 4.12134L3 4.12134C2.73478 4.12134 2.48043 4.22669 2.29289 4.41423C2.10536 4.60177 2 4.85612 2 5.12134L2 19.1213C2 19.3866 2.10536 19.6409 2.29289 19.8284C2.48043 20.016 2.73478 20.1213 3 20.1213L17 20.1213C17.2652 20.1213 17.5196 20.016 17.7071 19.8284C17.8946 19.6409 18 19.3866 18 19.1213L18 12.1213C18 11.5691 18.4477 11.1213 19 11.1213C19.5523 11.1213 20 11.5691 20 12.1213L20 19.1213C20 19.917 19.6839 20.68 19.1213 21.2427C18.5587 21.8053 17.7957 22.1213 17 22.1213L3 22.1213C2.20435 22.1213 1.44129 21.8053 0.87868 21.2427C0.31607 20.68 0 19.917 0 19.1213L0 5.12134C0 4.32569 0.31607 3.56263 0.87868 3.00002Z" fill="rgb(255,255,255)" fill-rule="evenodd" />
</svg>
