<svg viewBox="0 0 22.0002 18" xmlns="http://www.w3.org/2000/svg" xmlns:xlink="http://www.w3.org/1999/xlink" width="22.000175" height="18.000000" fill="none" customFrame="#000000">
	<path id="Shape" d="M0.000135348 2.98266C-2.68281e-05 2.99253 -4.31758e-05 3.00239 8.58362e-05 3.01225L8.58362e-05 15C8.58362e-05 16.6523 1.3478 18 3.00009 18L19.0001 18C20.6524 18 22.0001 16.6523 22.0001 15L22.0001 3.01236C22.0002 3.00242 22.0002 2.99247 22 2.98251C21.9906 1.33822 20.6465 0 19.0001 0L3.00009 0C1.35359 0 0.00952624 1.3383 0.000135348 2.98266ZM2.10666 2.55395C2.27204 2.22692 2.61212 2 3.00009 2L19.0001 2C19.3881 2 19.7281 2.22692 19.8935 2.55395L11.0001 8.77934L2.10666 2.55395ZM20.0001 4.92066L20.0001 15C20.0001 15.5477 19.5478 16 19.0001 16L3.00009 16C2.45237 16 2.00009 15.5477 2.00009 15L2.00009 4.92066L10.4266 10.8192C10.7709 11.0603 11.2292 11.0603 11.5735 10.8192L20.0001 4.92066Z" fill="rgb(255,255,255)" fill-rule="evenodd" />
</svg>
