<svg viewBox="0 0 64 64" xmlns="http://www.w3.org/2000/svg" xmlns:xlink="http://www.w3.org/1999/xlink" width="64.000000" height="64.000000" fill="none">
	<rect id="css3-alt" width="64.000000" height="64.000000" x="0.000000" y="0.000000" fill="rgb(255,255,255)" fill-opacity="0" />
	<path id="Vector" d="M12 8L16 50L32 56L48 50L52 8L12 8ZM18.6641 14L45.3047 14L44.7812 20L33.3906 26L38.2422 26L44 26L44.2461 26L43.2227 38.0156L43.2617 38L42.7109 44L32 48L21.2695 44L20.6094 36L26.6523 36L26.9648 40.0664L32 41.8086L37.043 40.1016L37.7344 32L20.2617 32L19.7461 26L31.5664 20L19.2188 20L18.6641 14Z" fill="rgb(255,255,255)" fill-rule="nonzero" />
</svg>
