<svg viewBox="0 0 64 64" xmlns="http://www.w3.org/2000/svg" xmlns:xlink="http://www.w3.org/1999/xlink" width="64.000000" height="64.000000" fill="none">
	<rect id="html5" width="64.000000" height="64.000000" x="0.000000" y="0.000000" fill="rgb(255,255,255)" fill-opacity="0" />
	<path id="Vector" d="M10.4375 8L10.625 10.1875L14.125 49.75L14.25 51.125L15.5625 51.5L31.4375 55.9375L31.9375 56.0625L32.5 55.9375L48.375 51.5625L49.6875 51.1875L49.8125 49.8125L53.375 10.1875L53.5625 8.0625L51.375 8.0625L12.625 8L10.4375 8ZM14.8125 12L49.1875 12.0625L45.9375 48.0625L32 51.9375L18 48.0625L14.8125 12ZM19.625 18L20.9375 32.9375L38.0625 32.9375L37.5 39.375L32 40.875L31.9375 40.875L26.4375 39.375L26.125 35.25L21.125 35.25L21.8125 43.1875L31.9375 46L32 46L42.125 43.1875L43.5 28L25.4375 28L25 22.9375L43.9375 22.9375L44.375 18L19.625 18Z" fill="rgb(255,255,255)" fill-rule="nonzero" />
</svg>
