<svg viewBox="0 0 24 24" xmlns="http://www.w3.org/2000/svg" xmlns:xlink="http://www.w3.org/1999/xlink" width="24.000000" height="24.000000" fill="none" customFrame="#000000">
	<defs>
		<clipPath id="clipPath_0">
			<rect width="24.000000" height="24.000000" x="0.000000" y="0.000000" fill="rgb(255,255,255)" />
		</clipPath>
	</defs>
	<rect id="icon-send" width="24.000000" height="24.000000" x="0.000000" y="0.000000" fill="rgb(255,255,255)" fill-opacity="0" />
	<g id="icon-send" clip-path="url(#clipPath_0)" customFrame="url(#clipPath_0)">
		<rect id="icon-send" width="24.000000" height="24.000000" x="0.000000" y="0.000000" />
		<path id="Shape" d="M22.7071 1.29292C22.9306 1.5164 23.0262 1.81935 22.9939 2.11081C22.9848 2.19252 22.9657 2.27332 22.9366 2.35121L15.9439 22.3304C15.8084 22.7174 15.4504 22.9825 15.0408 22.9992C14.6311 23.0159 14.2527 22.7808 14.0862 22.4062L10.2424 13.7576L1.59387 9.91384C1.21919 9.74731 0.984123 9.36894 1.00084 8.95926C1.01755 8.54959 1.28265 8.19162 1.66965 8.05617L21.6488 1.06348C21.7272 1.03414 21.8085 1.01497 21.8907 1.00598C21.9511 0.999338 22.0117 0.998262 22.0717 1.00259C22.3032 1.01913 22.5301 1.11591 22.7071 1.29292ZM18.1943 4.3915L4.71108 9.11063L10.7785 11.8073L18.1943 4.3915ZM12.1928 13.2215L19.6085 5.80571L14.8894 19.289L12.1928 13.2215Z" fill="rgb(41,47,54)" fill-rule="evenodd" />
	</g>
</svg>
