<svg viewBox="0 0 16 16" xmlns="http://www.w3.org/2000/svg" xmlns:xlink="http://www.w3.org/1999/xlink" width="16.000000" height="16.000000" fill="none" customFrame="#000000">
	<defs>
		<clipPath id="clipPath_4">
			<rect width="16.000000" height="16.000000" x="0.000000" y="0.000000" fill="rgb(255,255,255)" />
		</clipPath>
	</defs>
	<rect id="icon-mouse-pointer" width="16.000000" height="16.000000" x="0.000000" y="0.000000" fill="rgb(255,255,255)" fill-opacity="0" />
	<g id="icon-mouse-pointer" clip-path="url(#clipPath_4)" customFrame="url(#clipPath_4)">
		<rect id="icon-mouse-pointer" width="16.000000" height="16.000000" x="0.000000" y="0.000000" />
		<path id="Shape" d="M2.25644 1.38454C2.00708 1.28065 1.71967 1.33752 1.52866 1.52853C1.33764 1.71955 1.28078 2.00696 1.38466 2.25632L6.098 13.5697C6.20465 13.8257 6.45866 13.9889 6.73583 13.9796C7.01301 13.9702 7.25545 13.7903 7.34464 13.5277L8.67326 9.61594L12.1953 13.138C12.4557 13.3984 12.8778 13.3984 13.1381 13.138C13.3985 12.8777 13.3985 12.4555 13.1381 12.1952L9.61606 8.67313L13.5278 7.34452C13.7904 7.25533 13.9703 7.01288 13.9797 6.73571C13.989 6.45853 13.8258 6.20453 13.5698 6.09788L2.25644 1.38454ZM6.64988 11.4273L3.23803 3.23791L11.4274 6.64976L8.17232 7.75535C7.97615 7.82198 7.82211 7.97603 7.75548 8.1722L6.64988 11.4273Z" fill="rgb(18,247,214)" fill-rule="evenodd" />
	</g>
</svg>
