<svg viewBox="0 0 20 20" xmlns="http://www.w3.org/2000/svg" xmlns:xlink="http://www.w3.org/1999/xlink" width="20.000000" height="20.000000" fill="none" customFrame="#000000">
	<defs>
		<clipPath id="clipPath_4">
			<rect width="20.000000" height="20.000000" x="0.000000" y="0.000000" fill="rgb(255,255,255)" />
		</clipPath>
	</defs>
	<rect id="icon-search" width="20.000000" height="20.000000" x="0.000000" y="0.000000" fill="rgb(255,255,255)" fill-opacity="0" />
	<g id="icon-search" clip-path="url(#clipPath_4)" customFrame="url(#clipPath_4)">
		<rect id="icon-search" width="20.000000" height="20.000000" x="0.000000" y="0.000000" />
		<path id="Shape" d="M7.50202 16.6532C8.04358 16.7733 8.59847 16.8333 9.16667 16.8333C9.73484 16.8333 10.2897 16.7733 10.8312 16.6532C11.2804 16.5536 11.7204 16.4127 12.1512 16.2304C12.5853 16.0468 12.9958 15.8275 13.3828 15.5725C13.5374 15.4706 13.6883 15.363 13.8354 15.2497L16.7928 18.2071C17.1888 18.6031 17.811 18.6031 18.207 18.2071C18.603 17.8111 18.603 17.1889 18.207 16.7929L15.2496 13.8355C15.3629 13.6883 15.4706 13.5374 15.5725 13.3828C15.8275 12.9958 16.0468 12.5853 16.2304 12.1512C16.4126 11.7204 16.5536 11.2805 16.6532 10.8313C16.7733 10.2898 16.8333 9.73488 16.8333 9.16667C16.8333 8.5985 16.7733 8.04365 16.6532 7.50212C16.5536 7.05297 16.4127 6.61298 16.2304 6.18215C16.0468 5.74806 15.8275 5.33752 15.5725 4.95053C15.2885 4.51968 14.9603 4.11801 14.5878 3.74551C14.2153 3.37301 13.8136 3.04479 13.3828 2.76084C12.9958 2.50581 12.5853 2.28649 12.1512 2.1029C11.7204 1.92068 11.2804 1.77977 10.8313 1.68016C10.2897 1.56005 9.73486 1.5 9.16667 1.5C8.59849 1.5 8.04363 1.56005 7.50209 1.68015C7.05295 1.77976 6.61297 1.92067 6.18215 2.1029C5.74809 2.28649 5.33756 2.5058 4.95058 2.76083C4.51971 3.04478 4.11802 3.37301 3.74551 3.74551C3.37301 4.11802 3.04478 4.5197 2.76084 4.95057C2.5058 5.33755 2.28649 5.74808 2.1029 6.18215C1.92068 6.61294 1.77978 7.0529 1.68017 7.50201C1.56006 8.04358 1.5 8.59846 1.5 9.16667C1.5 9.73485 1.56005 10.2897 1.68015 10.8313C1.77976 11.2804 1.92068 11.7204 2.1029 12.1512C2.28649 12.5853 2.5058 12.9958 2.76083 13.3828C3.04478 13.8136 3.37301 14.2153 3.74551 14.5878C4.11802 14.9603 4.5197 15.2886 4.95057 15.5725C5.33756 15.8275 5.74808 16.0468 6.18215 16.2304C6.61295 16.4127 7.0529 16.5536 7.50202 16.6532ZM13.258 13.0875C13.5039 12.8313 13.7223 12.5572 13.9133 12.2652C14.0971 11.9841 14.2555 11.6864 14.3884 11.3721C14.518 11.0657 14.6193 10.7529 14.6922 10.4336C14.7863 10.0221 14.8333 9.59974 14.8333 9.16667C14.8333 8.73364 14.7863 8.31135 14.6923 7.89981C14.6193 7.58049 14.518 7.26764 14.3884 6.96125C14.2555 6.6469 14.0971 6.34918 13.9133 6.06809C13.7007 5.74307 13.4542 5.44028 13.1736 5.15973C12.893 4.87916 12.5902 4.63259 12.2652 4.42003C11.9841 4.23623 11.6864 4.07785 11.3721 3.9449C11.0657 3.81532 10.7529 3.71405 10.4336 3.64108C10.022 3.54703 9.59972 3.5 9.16667 3.5C8.73363 3.5 8.31133 3.54702 7.89979 3.64107C7.58047 3.71404 7.26763 3.81532 6.96125 3.9449C6.64692 4.07786 6.34922 4.23623 6.06814 4.42004C5.7431 4.6326 5.4403 4.87916 5.15973 5.15973C4.87915 5.4403 4.63258 5.74312 4.42002 6.06817C4.23622 6.34924 4.07785 6.64693 3.9449 6.96125C3.81533 7.26761 3.71405 7.58044 3.64108 7.89973C3.54703 8.3113 3.5 8.73361 3.5 9.16667C3.5 9.59971 3.54702 10.022 3.64107 10.4336C3.71404 10.7529 3.81532 11.0657 3.9449 11.3721C4.07786 11.6864 4.23623 11.9841 4.42004 12.2652C4.6326 12.5902 4.87916 12.893 5.15973 13.1736C5.4403 13.4542 5.74311 13.7007 6.06815 13.9133C6.34922 14.0971 6.64692 14.2555 6.96125 14.3884C7.26759 14.518 7.58041 14.6193 7.89969 14.6922C8.31126 14.7863 8.73359 14.8333 9.16667 14.8333C9.59969 14.8333 10.022 14.7863 10.4335 14.6923C10.7528 14.6193 11.0657 14.518 11.3721 14.3884C11.6864 14.2555 11.9841 14.0971 12.2652 13.9133C12.5572 13.7223 12.8313 13.5039 13.0874 13.2581C13.1121 13.2269 13.1389 13.1968 13.1678 13.1679C13.1967 13.139 13.2268 13.1122 13.258 13.0875Z" fill="rgb(41,47,54)" fill-rule="evenodd" />
	</g>
</svg>
