<svg viewBox="0 0 32 32" xmlns="http://www.w3.org/2000/svg" xmlns:xlink="http://www.w3.org/1999/xlink" width="32.000000" height="32.000000" fill="none" customFrame="#000000">
	<defs>
		<clipPath id="clipPath_0">
			<rect width="32.000000" height="32.000000" x="0.000000" y="0.000000" fill="rgb(255,255,255)" />
		</clipPath>
	</defs>
	<rect id="icon-monitor" width="32.000000" height="32.000000" x="0.000000" y="0.000000" fill="rgb(255,255,255)" fill-opacity="0" />
	<g id="icon-monitor" clip-path="url(#clipPath_0)" customFrame="url(#clipPath_0)">
		<rect id="icon-monitor" width="32.000000" height="32.000000" x="0.000000" y="0.000000" />
		<path id="Shape" d="M17.3333 23.9998L26.6666 23.9998C28.8758 23.9998 30.6666 22.209 30.6666 19.9998L30.6666 6.6665C30.6666 4.45737 28.8758 2.6665 26.6666 2.6665L5.33331 2.6665C3.12417 2.6665 1.33331 4.45737 1.33331 6.6665L1.33331 19.9998C1.33331 22.209 3.12417 23.9998 5.33331 23.9998L14.6666 23.9998L14.6666 26.6665L10.6666 26.6665C9.93027 26.6665 9.33331 27.2635 9.33331 27.9998C9.33331 28.7362 9.93027 29.3332 10.6666 29.3332L21.3333 29.3332C22.0697 29.3332 22.6666 28.7362 22.6666 27.9998C22.6666 27.2635 22.0697 26.6665 21.3333 26.6665L17.3333 26.6665L17.3333 23.9998ZM5.33331 5.33317C4.59693 5.33317 3.99998 5.93012 3.99998 6.6665L3.99998 19.9998C3.99998 20.7362 4.59693 21.3332 5.33331 21.3332L26.6666 21.3332C27.403 21.3332 28 20.7362 28 19.9998L28 6.6665C28 5.93012 27.403 5.33317 26.6666 5.33317L5.33331 5.33317Z" fill="rgb(41,47,54)" fill-rule="evenodd" />
	</g>
</svg>
