<svg viewBox="0 0 32 32" xmlns="http://www.w3.org/2000/svg" xmlns:xlink="http://www.w3.org/1999/xlink" width="32.000000" height="32.000000" fill="none" customFrame="#000000">
	<defs>
		<clipPath id="clipPath_0">
			<rect width="32.000000" height="32.000000" x="0.000000" y="0.000000" fill="rgb(255,255,255)" />
		</clipPath>
	</defs>
	<rect id="icon-smartphone" width="32.000000" height="32.000000" x="0.000000" y="0.000000" fill="rgb(255,255,255)" fill-opacity="0" />
	<g id="icon-smartphone" clip-path="url(#clipPath_0)" customFrame="url(#clipPath_0)">
		<rect id="icon-smartphone" width="32.000000" height="32.000000" x="0.000000" y="0.000000" />
		<path id="Shape" d="M5.33325 5.3335C5.33325 3.12436 7.12411 1.3335 9.33325 1.3335L22.6666 1.3335C24.8757 1.3335 26.6666 3.12436 26.6666 5.3335L26.6666 26.6668C26.6666 28.876 24.8757 30.6668 22.6666 30.6668L9.33325 30.6668C7.12411 30.6668 5.33325 28.876 5.33325 26.6668L5.33325 5.3335ZM9.33325 4.00016C8.59687 4.00016 7.99992 4.59712 7.99992 5.3335L7.99992 26.6668C7.99992 27.4032 8.59687 28.0002 9.33325 28.0002L22.6666 28.0002C23.403 28.0002 23.9999 27.4032 23.9999 26.6668L23.9999 5.3335C23.9999 4.59712 23.403 4.00016 22.6666 4.00016L9.33325 4.00016ZM14.6666 24.0002C14.6666 23.2638 15.2635 22.6668 15.9999 22.6668L16.0133 22.6668C16.7496 22.6668 17.3466 23.2638 17.3466 24.0002C17.3466 24.7365 16.7496 25.3335 16.0133 25.3335L15.9999 25.3335C15.2635 25.3335 14.6666 24.7365 14.6666 24.0002Z" fill="rgb(41,47,54)" fill-rule="evenodd" />
	</g>
</svg>
