<svg viewBox="0 0 14 14" xmlns="http://www.w3.org/2000/svg" xmlns:xlink="http://www.w3.org/1999/xlink" width="14.000000" height="14.000000" fill="none" customFrame="#000000">
	<defs>
		<clipPath id="clipPath_2">
			<rect width="14.000000" height="14.000000" x="0.000000" y="0.000000" fill="rgb(255,255,255)" />
		</clipPath>
	</defs>
	<rect id="icon-briefcase" width="14.000000" height="14.000000" x="0.000000" y="0.000000" fill="rgb(255,255,255)" fill-opacity="0" />
	<g id="icon-briefcase" clip-path="url(#clipPath_2)" customFrame="url(#clipPath_2)">
		<rect id="icon-briefcase" width="14.000000" height="14.000000" x="0.000000" y="0.000000" />
		<path id="Shape" d="M5.83331 1.16663C5.36918 1.16663 4.92407 1.351 4.59588 1.67919C4.26769 2.00738 4.08331 2.4525 4.08331 2.91663L4.08331 3.49996L2.33331 3.49996C1.36681 3.49996 0.583313 4.28346 0.583313 5.24996L0.583313 11.0833C0.583313 12.0498 1.36681 12.8333 2.33331 12.8333L11.6666 12.8333C12.6331 12.8333 13.4166 12.0498 13.4166 11.0833L13.4166 5.24996C13.4166 4.28346 12.6331 3.49996 11.6666 3.49996L9.91665 3.49996L9.91665 2.91663C9.91665 2.4525 9.73227 2.00738 9.40408 1.67919C9.0759 1.351 8.63078 1.16663 8.16665 1.16663L5.83331 1.16663ZM8.74998 3.49996L8.74998 2.91663C8.74998 2.76192 8.68852 2.61354 8.57913 2.50415C8.46973 2.39475 8.32136 2.33329 8.16665 2.33329L5.83331 2.33329C5.6786 2.33329 5.53023 2.39475 5.42083 2.50415C5.31144 2.61354 5.24998 2.76192 5.24998 2.91663L5.24998 3.49996L8.74998 3.49996ZM5.24998 4.66663L8.74998 4.66663L8.74998 11.6666L5.24998 11.6666L5.24998 4.66663ZM4.08331 4.66663L2.33331 4.66663C2.01115 4.66663 1.74998 4.92779 1.74998 5.24996L1.74998 11.0833C1.74998 11.4055 2.01115 11.6666 2.33331 11.6666L4.08331 11.6666L4.08331 4.66663ZM9.91665 11.6666L9.91665 4.66663L11.6666 4.66663C11.9888 4.66663 12.25 4.92779 12.25 5.24996L12.25 11.0833C12.25 11.4055 11.9888 11.6666 11.6666 11.6666L9.91665 11.6666Z" fill="rgb(18,247,214)" fill-rule="evenodd" />
	</g>
</svg>
