<svg viewBox="0 0 14 14" xmlns="http://www.w3.org/2000/svg" xmlns:xlink="http://www.w3.org/1999/xlink" width="14.000000" height="14.000000" fill="none" customFrame="#000000">
	<defs>
		<clipPath id="clipPath_1">
			<rect width="14.000000" height="14.000000" x="0.000000" y="0.000000" fill="rgb(255,255,255)" />
		</clipPath>
	</defs>
	<rect id="icon-link" width="14.000000" height="14.000000" x="0.000000" y="0.000000" fill="rgb(255,255,255)" fill-opacity="0" />
	<g id="icon-link" clip-path="url(#clipPath_1)" customFrame="url(#clipPath_1)">
		<rect id="icon-link" width="14.000000" height="14.000000" x="0.000000" y="0.000000" />
		<path id="Shape" d="M9.91414 0.622203C8.99645 0.614228 8.11234 0.967009 7.45223 1.60456L7.44621 1.61047L6.44287 2.60797C6.2144 2.83511 6.21333 3.20445 6.44047 3.43292C6.66761 3.66139 7.03695 3.66247 7.26542 3.43533L8.2656 2.44096C8.70537 2.01767 9.29354 1.78352 9.904 1.78883C10.5158 1.79414 11.101 2.03954 11.5336 2.47215C11.9663 2.90477 12.2117 3.49 12.217 4.1018C12.2223 4.71199 11.9883 5.29992 11.5654 5.73962L9.81917 7.48584C9.58262 7.72247 9.29788 7.90553 8.98439 8.02247C8.6709 8.13941 8.33593 8.18757 8.0022 8.16367C7.66846 8.13976 7.34377 8.04437 7.05015 7.88395C6.75653 7.72353 6.50084 7.50184 6.30043 7.23391C6.10746 6.97593 5.74189 6.92323 5.48391 7.1162C5.22593 7.30917 5.17323 7.67474 5.3662 7.93272C5.66682 8.33461 6.05035 8.66715 6.49079 8.90778C6.93122 9.14841 7.41826 9.2915 7.91886 9.32735C8.41946 9.3632 8.92191 9.29097 9.39214 9.11556C9.86237 8.94016 10.2894 8.66567 10.6442 8.31072L12.3941 6.56079L12.4012 6.55356C13.0388 5.89345 13.3916 5.00935 13.3836 4.09166C13.3756 3.17397 13.0075 2.29613 12.3586 1.6472C11.7097 0.998268 10.8318 0.630177 9.91414 0.622203ZM4.60779 4.88439C5.07802 4.70898 5.58048 4.63675 6.08108 4.6726C6.58168 4.70846 7.06871 4.85155 7.50915 5.09218C7.94958 5.33281 8.33312 5.66535 8.63373 6.06724C8.8267 6.32522 8.774 6.69078 8.51603 6.88376C8.25805 7.07673 7.89248 7.02403 7.69951 6.76605C7.4991 6.49812 7.24341 6.27643 6.94978 6.11601C6.65616 5.95559 6.33147 5.86019 5.99774 5.83629C5.664 5.81239 5.32903 5.86054 5.01555 5.97748C4.70206 6.09442 4.41731 6.27749 4.18077 6.51412L2.43455 8.26034C2.01161 8.70004 1.77766 9.28796 1.78297 9.89816C1.78828 10.51 2.03368 11.0952 2.4663 11.5278C2.89891 11.9604 3.48414 12.2058 4.09594 12.2111C4.70613 12.2164 5.29405 11.9825 5.73375 11.5596L6.72748 10.5658C6.95528 10.338 7.32463 10.338 7.55243 10.5658C7.78024 10.7936 7.78024 11.163 7.55243 11.3908L6.55493 12.3883L6.5477 12.3954C5.88759 13.0329 5.00349 13.3857 4.0858 13.3778C3.16811 13.3698 2.29027 13.0017 1.64134 12.3528C0.992409 11.7038 0.624318 10.826 0.616343 9.9083C0.608369 8.99061 0.961149 8.1065 1.5987 7.44639L1.60581 7.43916L3.35581 5.68916C3.71061 5.33425 4.13759 5.05979 4.60779 4.88439Z" fill="rgb(18,247,214)" fill-rule="evenodd" />
	</g>
</svg>
