<svg viewBox="0 0 24 24" xmlns="http://www.w3.org/2000/svg" xmlns:xlink="http://www.w3.org/1999/xlink" width="24.000000" height="24.000000" fill="none">
	<rect id="icon-download" width="24.000000" height="24.000000" x="0.000000" y="0.000000" />
	<path id="Shape" d="M13 3C13 2.44772 12.5523 2 12 2C11.4477 2 11 2.44772 11 3L11 12.5858L7.70711 9.29289C7.31658 8.90237 6.68342 8.90237 6.29289 9.29289C5.90237 9.68342 5.90237 10.3166 6.29289 10.7071L11.2929 15.7071C11.6834 16.0976 12.3166 16.0976 12.7071 15.7071L17.7071 10.7071C18.0976 10.3166 18.0976 9.68342 17.7071 9.29289C17.3166 8.90237 16.6834 8.90237 16.2929 9.29289L13 12.5858L13 3ZM4 15C4 14.4477 3.55228 14 3 14C2.44772 14 2 14.4477 2 15L2 19C2 19.7957 2.31607 20.5587 2.87868 21.1213C3.44129 21.6839 4.20435 22 5 22L19 22C19.7957 22 20.5587 21.6839 21.1213 21.1213C21.6839 20.5587 22 19.7957 22 19L22 15C22 14.4477 21.5523 14 21 14C20.4477 14 20 14.4477 20 15L20 19C20 19.2652 19.8946 19.5196 19.7071 19.7071C19.5196 19.8946 19.2652 20 19 20L5 20C4.73478 20 4.48043 19.8946 4.29289 19.7071C4.10536 19.5196 4 19.2652 4 19L4 15Z" fill="rgb(41,47,54)" fill-rule="evenodd" />
</svg>
