<svg viewBox="0 0 16 16" xmlns="http://www.w3.org/2000/svg" xmlns:xlink="http://www.w3.org/1999/xlink" width="16.000000" height="16.000000" fill="none">
	<rect id="discord" width="16.000000" height="16.000000" x="0.000000" y="0.000000" />
	<path id="Vector" d="M6.32812 2.45312L5.9375 2.5C5.9375 2.5 4.18555 2.69141 2.90625 3.71875L2.89062 3.71875L2.875 3.73438C2.58789 3.99805 2.46289 4.32227 2.26562 4.79688C2.06836 5.27148 1.85742 5.87695 1.67188 6.54688C1.30078 7.88867 1 9.51367 1 11L1 11.125L1.0625 11.25C1.52539 12.0625 2.34766 12.5801 3.10938 12.9375C3.87109 13.2949 4.5293 13.4844 4.98438 13.5L5.28125 13.5156L5.4375 13.25L5.98438 12.2812C6.56445 12.4121 7.23242 12.5 8 12.5C8.76758 12.5 9.43555 12.4121 10.0156 12.2812L10.5625 13.25L10.7188 13.5156L11.0156 13.5C11.4707 13.4844 12.1289 13.2949 12.8906 12.9375C13.6523 12.5801 14.4746 12.0625 14.9375 11.25L15 11.125L15 11C15 9.51367 14.6992 7.88867 14.3281 6.54688C14.1426 5.87695 13.9316 5.27148 13.7344 4.79688C13.5371 4.32227 13.4121 3.99805 13.125 3.73438L13.1094 3.71875L13.0938 3.71875C11.8145 2.69141 10.0625 2.5 10.0625 2.5L9.67188 2.45312L9.53125 2.8125C9.53125 2.8125 9.38672 3.17773 9.29688 3.59375C8.73047 3.51758 8.26758 3.5 8 3.5C7.73242 3.5 7.26953 3.51758 6.70312 3.59375C6.61328 3.17773 6.46875 2.8125 6.46875 2.8125L6.32812 2.45312ZM5.64062 3.59375C5.66211 3.66406 5.68359 3.72461 5.70312 3.78125C5.05664 3.94141 4.36719 4.18555 3.73438 4.57812L4.26562 5.42188C5.5625 4.61719 7.42578 4.5 8 4.5C8.57422 4.5 10.4375 4.61719 11.7344 5.42188L12.2656 4.57812C11.6328 4.18555 10.9434 3.94141 10.2969 3.78125C10.3164 3.72461 10.3379 3.66406 10.3594 3.59375C10.8262 3.6875 11.7168 3.90234 12.4531 4.48438C12.4492 4.48633 12.6406 4.77539 12.8125 5.1875C12.9883 5.61133 13.1836 6.17578 13.3594 6.8125C13.6973 8.0332 13.9629 9.51953 13.9844 10.8281C13.6699 11.3086 13.0859 11.7422 12.4688 12.0312C11.9297 12.2832 11.5039 12.375 11.25 12.4219L11 12C11.1484 11.9453 11.2949 11.8848 11.4219 11.8281C12.1914 11.4902 12.6094 11.125 12.6094 11.125L11.9531 10.375C11.9531 10.375 11.6719 10.6328 11.0156 10.9219C10.3594 11.2109 9.35742 11.5 8 11.5C6.64258 11.5 5.64062 11.2109 4.98438 10.9219C4.32812 10.6328 4.04688 10.375 4.04688 10.375L3.39062 11.125C3.39062 11.125 3.80859 11.4902 4.57812 11.8281C4.70508 11.8848 4.85156 11.9453 5 12L4.75 12.4219C4.49609 12.375 4.07031 12.2832 3.53125 12.0312C2.91406 11.7422 2.33008 11.3086 2.01562 10.8281C2.03711 9.51953 2.30273 8.0332 2.64062 6.8125C2.81641 6.17578 3.01172 5.61133 3.1875 5.1875C3.35938 4.77539 3.55078 4.48633 3.54688 4.48438C4.2832 3.90234 5.17383 3.6875 5.64062 3.59375ZM6.25 7C5.86328 7 5.52148 7.2207 5.3125 7.5C5.10352 7.7793 5 8.12305 5 8.5C5 8.87695 5.10352 9.2207 5.3125 9.5C5.52148 9.7793 5.86328 10 6.25 10C6.63672 10 6.97852 9.7793 7.1875 9.5C7.39648 9.2207 7.5 8.87695 7.5 8.5C7.5 8.12305 7.39648 7.7793 7.1875 7.5C6.97852 7.2207 6.63672 7 6.25 7ZM9.75 7C9.36328 7 9.02148 7.2207 8.8125 7.5C8.60352 7.7793 8.5 8.12305 8.5 8.5C8.5 8.87695 8.60352 9.2207 8.8125 9.5C9.02148 9.7793 9.36328 10 9.75 10C10.1367 10 10.4785 9.7793 10.6875 9.5C10.8965 9.2207 11 8.87695 11 8.5C11 8.12305 10.8965 7.7793 10.6875 7.5C10.4785 7.2207 10.1367 7 9.75 7ZM6.25 8C6.27734 8 6.3125 8.00977 6.375 8.09375C6.4375 8.17773 6.5 8.32422 6.5 8.5C6.5 8.67578 6.4375 8.82227 6.375 8.90625C6.3125 8.99023 6.27734 9 6.25 9C6.22266 9 6.1875 8.99023 6.125 8.90625C6.0625 8.82227 6 8.67578 6 8.5C6 8.32422 6.0625 8.17773 6.125 8.09375C6.1875 8.00977 6.22266 8 6.25 8ZM9.75 8C9.77734 8 9.8125 8.00977 9.875 8.09375C9.9375 8.17773 10 8.32422 10 8.5C10 8.67578 9.9375 8.82227 9.875 8.90625C9.8125 8.99023 9.77734 9 9.75 9C9.72266 9 9.6875 8.99023 9.625 8.90625C9.5625 8.82227 9.5 8.67578 9.5 8.5C9.5 8.32422 9.5625 8.17773 9.625 8.09375C9.6875 8.00977 9.72266 8 9.75 8Z" fill="rgb(41,47,54)" fill-rule="nonzero" />
</svg>
