<svg viewBox="0 0 16 16" xmlns="http://www.w3.org/2000/svg" xmlns:xlink="http://www.w3.org/1999/xlink" width="16.000000" height="16.000000" fill="none">
	<rect id="github" width="16.000000" height="16.000000" x="0.000000" y="0.000000" />
	<path id="Vector" d="M7.99994 1.49805C6.41692 1.49811 4.88558 2.06146 3.67991 3.08728C2.47425 4.1131 1.67294 5.53446 1.41936 7.09703C1.16578 8.65961 1.47648 10.2614 2.29587 11.6159C3.11526 12.9703 4.38986 13.989 5.89162 14.4897C6.22495 14.5481 6.34995 14.3481 6.34995 14.173C6.34995 14.0147 6.34161 13.4897 6.34161 12.9314C4.6666 13.2397 4.23327 12.5231 4.09994 12.1481C3.95199 11.7833 3.71745 11.4601 3.4166 11.2064C3.18327 11.0814 2.84994 10.773 3.40826 10.7647C3.62145 10.7879 3.82593 10.862 4.00436 10.981C4.18279 11.0999 4.32991 11.2601 4.43327 11.448C4.52445 11.6118 4.64706 11.756 4.79406 11.8724C4.94107 11.9887 5.10959 12.0749 5.28996 12.126C5.47033 12.1771 5.65901 12.1921 5.84519 12.1701C6.03137 12.1482 6.21138 12.0897 6.37492 11.998C6.40378 11.6591 6.55483 11.3422 6.79994 11.1064C5.3166 10.9397 3.7666 10.3647 3.7666 7.81473C3.75724 7.15216 4.00173 6.51112 4.44994 6.02307C4.24612 5.44721 4.26997 4.81526 4.5166 4.2564C4.5166 4.2564 5.07492 4.08139 6.34994 4.93973C7.4408 4.63972 8.59241 4.63972 9.68327 4.93973C10.9583 4.07307 11.5166 4.2564 11.5166 4.2564C11.7633 4.81525 11.7871 5.44722 11.5833 6.02307C12.0328 6.51028 12.2775 7.15189 12.2666 7.81473C12.2666 10.373 10.7083 10.9397 9.22494 11.1064C9.38404 11.2677 9.50657 11.4613 9.58422 11.6741C9.66186 11.8869 9.6928 12.1139 9.67494 12.3397C9.67494 13.2314 9.6666 13.9481 9.6666 14.1731C9.6666 14.3481 9.7916 14.5564 10.1249 14.4897C11.624 13.985 12.895 12.9639 13.7109 11.6087C14.5268 10.2536 14.8345 8.6526 14.5792 7.09154C14.3239 5.53048 13.5221 4.11096 12.3169 3.08639C11.1118 2.06181 9.58174 1.49887 7.99994 1.49805Z" fill="rgb(41,47,54)" fill-rule="nonzero" />
</svg>
