<svg viewBox="0 0 20 20" xmlns="http://www.w3.org/2000/svg" xmlns:xlink="http://www.w3.org/1999/xlink" width="20.000000" height="20.000000" fill="none" customFrame="#000000">
	<defs>
		<clipPath id="clipPath_5">
			<rect width="20.000000" height="20.000000" x="0.000000" y="0.000000" fill="rgb(255,255,255)" />
		</clipPath>
	</defs>
	<rect id="icon-instagram" width="20.000000" height="20.000000" x="0.000000" y="0.000000" fill="rgb(255,255,255)" fill-opacity="0" />
	<g id="icon-instagram" clip-path="url(#clipPath_5)" customFrame="url(#clipPath_5)">
		<rect id="icon-instagram" width="20.000000" height="20.000000" x="0.000000" y="0.000000" />
		<path id="Shape" d="M5.83337 0.833336C3.07195 0.833336 0.833374 3.07191 0.833374 5.83334L0.833374 14.1667C0.833374 16.9281 3.07195 19.1667 5.83337 19.1667L14.1667 19.1667C16.9281 19.1667 19.1667 16.9281 19.1667 14.1667L19.1667 5.83334C19.1667 3.07191 16.9281 0.833336 14.1667 0.833336L5.83337 0.833336ZM2.50004 5.83334C2.50004 3.99239 3.99242 2.5 5.83337 2.5L14.1667 2.5C16.0077 2.5 17.5 3.99239 17.5 5.83334L17.5 14.1667C17.5 16.0076 16.0077 17.5 14.1667 17.5L5.83337 17.5C3.99242 17.5 2.50004 16.0076 2.50004 14.1667L2.50004 5.83334ZM14.5834 4.58334C14.1231 4.58334 13.75 4.95643 13.75 5.41667C13.75 5.87691 14.1231 6.25 14.5834 6.25L14.5917 6.25C15.0519 6.25 15.425 5.87691 15.425 5.41667C15.425 4.95643 15.0519 4.58334 14.5917 4.58334L14.5834 4.58334ZM10.6472 5.84235C9.78031 5.71379 8.89493 5.86187 8.11701 6.26551C7.3391 6.66916 6.70826 7.30782 6.31424 8.09065C5.92022 8.87349 5.78307 9.76063 5.92231 10.6259C6.06154 11.4912 6.47007 12.2905 7.08978 12.9102C7.70949 13.5299 8.50882 13.9385 9.3741 14.0777C10.2394 14.2169 11.1265 14.0798 11.9093 13.6858C12.6922 13.2917 13.3308 12.6609 13.7345 11.883C14.1381 11.1051 14.2862 10.2197 14.1577 9.35276C14.0265 8.46847 13.6145 7.64979 12.9823 7.01767C12.3502 6.38554 11.5315 5.97348 10.6472 5.84235ZM8.88463 7.74489C9.35138 7.5027 9.88261 7.41385 10.4028 7.49098C10.9333 7.56966 11.4245 7.8169 11.8038 8.19618C12.1831 8.57545 12.4303 9.06666 12.509 9.59723C12.5861 10.1174 12.4973 10.6486 12.2551 11.1154C12.0129 11.5821 11.6297 11.9606 11.16 12.197C10.6903 12.4334 10.158 12.5157 9.63888 12.4322C9.11972 12.3487 8.64011 12.1035 8.26829 11.7317C7.89646 11.3599 7.65135 10.8803 7.5678 10.3611C7.48427 9.84196 7.56655 9.30967 7.80297 8.83997C8.03938 8.37027 8.41788 7.98707 8.88463 7.74489Z" fill="rgb(18,247,214)" fill-rule="evenodd" />
	</g>
</svg>
