<svg viewBox="0 0 16 16" xmlns="http://www.w3.org/2000/svg" xmlns:xlink="http://www.w3.org/1999/xlink" width="16.000000" height="16.000000" fill="none">
	<rect id="icon-instagram" width="16.000000" height="16.000000" x="0.000000" y="0.000000" />
	<path id="Shape" d="M4.66663 0.666504C2.45749 0.666504 0.666626 2.45736 0.666626 4.6665L0.666626 11.3332C0.666626 13.5423 2.45749 15.3332 4.66663 15.3332L11.3333 15.3332C13.5424 15.3332 15.3333 13.5423 15.3333 11.3332L15.3333 4.6665C15.3333 2.45736 13.5424 0.666504 11.3333 0.666504L4.66663 0.666504ZM1.99996 4.6665C1.99996 3.19374 3.19387 1.99984 4.66663 1.99984L11.3333 1.99984C12.8061 1.99984 14 3.19374 14 4.6665L14 11.3332C14 12.8059 12.8061 13.9998 11.3333 13.9998L4.66663 13.9998C3.19387 13.9998 1.99996 12.8059 1.99996 11.3332L1.99996 4.6665ZM11.6666 3.6665C11.2984 3.6665 11 3.96498 11 4.33317C11 4.70136 11.2984 4.99984 11.6666 4.99984L11.6733 4.99984C12.0415 4.99984 12.34 4.70136 12.34 4.33317C12.34 3.96498 12.0415 3.6665 11.6733 3.6665L11.6666 3.6665ZM8.51772 4.67371C7.82418 4.57087 7.11587 4.68933 6.49354 5.01225C5.8712 5.33516 5.36654 5.84609 5.05132 6.47236C4.7361 7.09862 4.62638 7.80834 4.73777 8.50056C4.84916 9.19277 5.17598 9.83224 5.67175 10.328C6.16752 10.8238 6.80699 11.1506 7.4992 11.262C8.19142 11.3734 8.90114 11.2637 9.5274 10.9484C10.1537 10.6332 10.6646 10.1286 10.9875 9.50622C11.3104 8.88389 11.4289 8.17558 11.326 7.48205C11.2211 6.77461 10.8915 6.11967 10.3858 5.61397C9.88009 5.10826 9.22515 4.77862 8.51772 4.67371ZM7.10763 6.19574C7.48103 6.00199 7.90601 5.93092 8.32214 5.99262C8.7466 6.05557 9.13956 6.25336 9.44298 6.55678C9.74641 6.8602 9.94419 7.25316 10.0071 7.67762C10.0688 8.09375 9.99777 8.51873 9.80402 8.89213C9.61027 9.26553 9.30371 9.56833 8.92795 9.75746C8.55219 9.94659 8.12636 10.0124 7.71103 9.94559C7.2957 9.87876 6.91202 9.68266 6.61456 9.3852C6.3171 9.08774 6.121 8.70406 6.05417 8.28873C5.98734 7.8734 6.05317 7.44757 6.2423 7.07181C6.43143 6.69605 6.73423 6.38949 7.10763 6.19574Z" fill="rgb(41,47,54)" fill-rule="evenodd" />
</svg>
